<svg width="108" height="108" viewBox="0 0 108 108" fill="none" xmlns="http://www.w3.org/2000/svg">
<rect width="108" height="108" rx="24" fill="#F27405"/>
<path d="M84.75 39.75H23.25L24.75 72C24.75 75.3137 27.4363 78 30.75 78H77.25C80.5637 78 83.25 75.3137 83.25 72L84.75 39.75Z" stroke="white" stroke-width="6" stroke-linecap="round" stroke-linejoin="round"/>
<path d="M69 39.75V30C69 24.4772 64.5228 20.25 59.25 20.25H48.75C43.4772 20.25 39 24.4772 39 30V39.75" stroke="white" stroke-width="6" stroke-linecap="round" stroke-linejoin="round"/>
<path d="M61.875 54.375C61.875 58.4824 58.4824 61.875 54.375 61.875C50.2676 61.875 46.875 58.4824 46.875 54.375C46.875 50.2676 50.2676 46.875 54.375 46.875C58.4824 46.875 61.875 50.2676 61.875 54.375Z" stroke="white" stroke-width="6"/>
</svg>
