<svg width="512" height="512" viewBox="0 0 512 512" fill="none" xmlns="http://www.w3.org/2000/svg">
<rect width="512" height="512" rx="102.4" fill="#F2E9DD"/>
<g transform="translate(100, 120) scale(1.5)">
    <path d="M20.57,4.35,16,2.11V14.22l4.57-2.24Z" fill="#A66321"/>
    <path d="M11.43,4.35,16,2.11V14.22L11.43,12V4.35Z" fill="#A66321"/>
    <path d="M29,6,16,12.2,3,6V22H29Z" fill="#F27405"/>
    <path d="M29,22,16,28.2,3,22Z" fill="#A66321"/>
    <path d="M16,12.2,20.57,9.95,11.43,9.95,16,12.2Z" fill="#A66321" />
</g>
<g transform="translate(190, 80) scale(1.2)">
    <path d="M20.84 4.61a5.5 5.5 0 0 0-7.78 0L12 5.67l-1.06-1.06a5.5 5.5 0 0 0-7.78 7.78l1.06 1.06L12 22.47l7.78-7.78 1.06-1.06a5.5 5.5 0 0 0 0-7.78z" fill="#F27405" stroke="#F2E9DD" stroke-width="1"/>
</g>
</svg>
