<svg width="512" height="512" viewBox="0 0 512 512" fill="none" xmlns="http://www.w3.org/2000/svg">
<rect width="512" height="512" fill="#F2E9DD"/>
<g transform="translate(181, 196) scale(1.2)">
    <path d="M112.5 15H37.5C35.5109 15 33.6032 15.7902 32.1967 17.1967C30.7902 18.6032 30 20.5109 30 22.5V97.5C30 99.4891 30.7902 101.397 32.1967 102.803C33.6032 104.21 35.5109 105 37.5 105H112.5C114.489 105 116.397 104.21 117.803 102.803C119.21 101.397 120 99.4891 120 97.5V22.5C120 20.5109 119.21 18.6032 117.803 17.1967C116.397 15.7902 114.489 15 112.5 15Z" stroke="#A66321" stroke-width="8" stroke-linecap="round" stroke-linejoin="round"/>
    <path d="M116.25 45H33.75" stroke="#F27405" stroke-width="8" stroke-linecap="round" stroke-linejoin="round"/>
    <path d="M75 15V7.5" stroke="#A66321" stroke-width="8" stroke-linecap="round" stroke-linejoin="round"/>
    <path d="M52.5 15L45 0" stroke="#A66321" stroke-width="8" stroke-linecap="round" stroke-linejoin="round"/>
    <path d="M97.5 15L105 0" stroke="#A66321" stroke-width="8" stroke-linecap="round" stroke-linejoin="round"/>
</g>
</svg>
